---
const { class: className ='' } = Astro.props
---

<svg xmlns="http://www.w3.org/2000/svg" viewBox="0 0 33 33" fill="none" class={className}>
	<g clip-path="url(#clip0_954_2150)">
		<path
			d="M29.9345 0.52704H3.28554C2.94206 0.510921 2.59876 0.562817 2.27532 0.679786C1.95188 0.796756 1.65465 0.976478 1.40061 1.20866C1.1466 1.44086 0.940774 1.72097 0.794954 2.03294C0.649133 2.34493 0.566152 2.68266 0.550781 3.02681V29.7844C0.570903 30.5046 0.865498 31.1899 1.37406 31.6992C1.88263 32.2088 2.5666 32.504 3.28554 32.5242H29.9345C30.6333 32.493 31.2922 32.1886 31.7699 31.6764C32.2476 31.1643 32.5059 30.4852 32.4896 29.7844V3.02681C32.4953 2.69184 32.4327 2.35925 32.3055 2.0494C32.1784 1.73957 31.9893 1.45901 31.75 1.22494C31.5108 0.990877 31.2264 0.808255 30.9142 0.688246C30.602 0.568237 30.2686 0.513381 29.9345 0.52704ZM10.5316 27.2047H5.88056V12.946H10.5316V27.2047ZM8.3159 10.7861C7.99134 10.7974 7.66794 10.7414 7.36604 10.6215C7.06412 10.5017 6.7902 10.3205 6.56152 10.0895C6.33282 9.85855 6.15426 9.58267 6.03708 9.27924C5.91989 8.97581 5.86661 8.65138 5.88056 8.32633C5.86621 7.99776 5.92057 7.66983 6.04016 7.36355C6.15975 7.05726 6.34192 6.77941 6.57497 6.54781C6.80805 6.31619 7.08685 6.13595 7.39352 6.01864C7.70022 5.90131 8.02799 5.84951 8.35582 5.86655C8.68038 5.85523 9.00378 5.91125 9.30568 6.03112C9.6076 6.15099 9.88151 6.33211 10.1102 6.56311C10.3389 6.79411 10.5175 7.06998 10.6346 7.37341C10.7518 7.67685 10.8051 8.00128 10.7912 8.32633C10.8055 8.6549 10.7511 8.98283 10.6316 9.2891C10.512 9.59539 10.3298 9.87325 10.0967 10.1048C9.86367 10.3365 9.58486 10.5167 9.27819 10.634C8.9715 10.7513 8.64373 10.8031 8.3159 10.7861ZM27.1797 27.2047H22.5087V19.4054C22.5087 17.5455 21.85 16.2657 20.1931 16.2657C19.6785 16.2701 19.1777 16.4338 18.7597 16.7346C18.3415 17.0354 18.0265 17.4583 17.8576 17.9455C17.7279 18.3107 17.6736 18.6984 17.6979 19.0854V27.2047H13.1067V12.946H17.6979V14.9458C18.1061 14.1944 18.7136 13.5709 19.4533 13.1437C20.1931 12.7168 21.0363 12.503 21.8899 12.5259C24.9041 12.5259 27.1797 14.5258 27.1797 18.7854V27.2047Z"
			fill="currentcolor"></path>
	</g>
	<defs>
		<clipPath id="clip0_954_2150">
			<rect width="32" height="32" fill="currentcolor" transform="translate(0.550781 0.52417)"
			></rect>
		</clipPath>
	</defs>
</svg>
