<svg xmlns="http://www.w3.org/2000/svg" viewBox="0 0 16 16">
	<path d="M4.99966 2.50136V3.50136H14.4997L14.1237 5.63471L13.3903 9.00136H4.68503L2 1.00014H1L3.81428 10.0014H14.1237L15 5.63471L15.4997 2.50136H4.99966ZM5.5 11.0001C4.96975 11.0007 4.4918 11.2224 4.11686 11.5973C3.74192 11.9723 3.53101 12.4806 3.53041 13.0109C3.53041 13.5413 3.74112 14.05 4.11619 14.4251C4.49127 14.8002 4.99997 15.0109 5.53041 15.0109C6.06084 15.0109 6.56955 14.8002 6.94462 14.4251C7.31969 14.05 7.53041 13.5413 7.53041 13.0109C7.52983 12.4806 7.31893 11.9723 6.94398 11.5973C6.56903 11.2224 6.03026 11.0007 5.5 11.0001ZM5.53041 14.0109C5.33262 14.0109 5.13929 13.9522 4.97484 13.8424C4.81039 13.7325 4.68221 13.5763 4.60653 13.3936C4.53084 13.2109 4.51104 13.0098 4.54962 12.8158C4.58821 12.6218 4.68345 12.4436 4.8233 12.3038C4.96315 12.1639 5.14133 12.0687 5.33532 12.0301C5.5293 11.9915 5.73036 12.0113 5.91309 12.087C6.09582 12.1627 6.25199 12.2909 6.36188 12.4553C6.47176 12.6198 6.53041 12.8131 6.53041 13.0109C6.53008 13.276 6.42461 13.5302 6.23715 13.7176C6.04968 13.9051 5.79552 14.0106 5.53041 14.0109ZM12.5304 11.0109C12.0002 11.0115 11.4918 11.2224 11.1169 11.5973C10.7419 11.9723 10.531 12.4806 10.5304 13.0109C10.5304 13.5413 10.7411 14.05 11.1162 14.4251C11.4913 14.8002 12 15.0109 12.5304 15.0109C13.0608 15.0109 13.5695 14.8002 13.9446 14.4251C14.3197 14.05 14.5304 13.5413 14.5304 13.0109C14.5298 12.4806 14.3189 11.9723 13.944 11.5973C13.569 11.2224 13.0607 11.0115 12.5304 11.0109ZM12.5304 14.0109C12.3326 14.0109 12.1393 13.9522 11.9748 13.8424C11.8104 13.7325 11.6822 13.5763 11.6065 13.3936C11.5308 13.2109 11.511 13.0098 11.5496 12.8158C11.5882 12.6218 11.6834 12.4436 11.8233 12.3038C11.9632 12.1639 12.1413 12.0687 12.3353 12.0301C12.5293 11.9915 12.7304 12.0113 12.9131 12.087C13.0958 12.1627 13.252 12.2909 13.3619 12.4553C13.4718 12.6198 13.5304 12.8131 13.5304 13.0109C13.5301 13.276 13.4246 13.5302 13.2371 13.7176C13.0497 13.9051 12.7955 14.0106 12.5304 14.0109Z" fill="currentcolor"/>
</svg>