<svg width="32" height="32" viewBox="0 0 32 32" fill="none" xmlns="http://www.w3.org/2000/svg">
<rect width="32" height="32" fill="black"/>
<path d="M28 16.1416C26.5369 16.1416 25.088 15.8534 23.7363 15.2935C22.3845 14.7336 21.1563 13.9129 20.1217 12.8783C19.0871 11.8437 18.2664 10.6155 17.7065 9.26371C17.1466 7.91195 16.8584 6.46314 16.8584 5L16.1416 5C16.1416 7.95494 14.9678 10.7889 12.8783 12.8783C10.7889 14.9678 7.95494 16.1416 5 16.1416V16.8584C7.95494 16.8584 10.7889 18.0322 12.8783 20.1217C14.9678 22.2111 16.1416 25.0451 16.1416 28H16.8584C16.8584 26.5369 17.1466 25.0881 17.7065 23.7363C18.2664 22.3845 19.0871 21.1563 20.1217 20.1217C21.1563 19.0871 22.3845 18.2664 23.7363 17.7065C25.088 17.1466 26.5369 16.8584 28 16.8584V16.1416Z" fill="#E1FC06"/>
</svg>
