<svg width="32" height="32" viewBox="0 0 32 32" fill="none" xmlns="http://www.w3.org/2000/svg">
<rect width="32" height="32" fill="#E1FC06"/>
<path d="M27 15.6572C25.6005 15.6572 24.2147 15.3815 22.9217 14.846C21.6287 14.3104 20.4538 13.5254 19.4642 12.5358C18.4746 11.5462 17.6896 10.3713 17.154 9.07833C16.6185 7.78534 16.3428 6.39952 16.3428 5L15.6572 5C15.6572 7.82647 14.5344 10.5372 12.5358 12.5358C10.5372 14.5344 7.82646 15.6572 5 15.6572V16.3428C7.82646 16.3428 10.5372 17.4656 12.5358 19.4642C14.5344 21.4628 15.6572 24.1735 15.6572 27H16.3428C16.3428 25.6005 16.6185 24.2147 17.154 22.9217C17.6896 21.6287 18.4746 20.4538 19.4642 19.4642C20.4538 18.4746 21.6287 17.6896 22.9217 17.154C24.2147 16.6185 25.6005 16.3428 27 16.3428V15.6572Z" fill="black"/>
</svg>
