<svg width="256" height="256" viewBox="0 0 256 256" fill="none" xmlns="http://www.w3.org/2000/svg">
<rect width="256" height="256" fill="#E1FC06"/>
<path d="M216 125.258C204.804 125.258 193.717 123.052 183.373 118.768C173.029 114.483 163.631 108.203 155.714 100.286C147.797 92.3693 141.517 82.9706 137.232 72.6267C132.948 62.2827 130.742 51.1962 130.742 40L125.258 40C125.258 62.6117 116.275 84.2973 100.286 100.286C84.2973 116.275 62.6117 125.258 40 125.258V130.742C62.6117 130.742 84.2973 139.725 100.286 155.714C116.275 171.703 125.258 193.388 125.258 216H130.742C130.742 204.804 132.948 193.717 137.232 183.373C141.517 173.029 147.797 163.631 155.714 155.714C163.631 147.797 173.029 141.517 183.373 137.232C193.717 132.948 204.804 130.742 216 130.742V130.742V125.258Z" fill="black"/>
</svg>
